<?xml version="1.0" encoding="utf-8"?>
<!-- Generator: Adobe Illustrator 19.0.0, SVG Export Plug-In . SVG Version: 6.00 Build 0)  -->
<svg version="1.1" id="Capa_1" xmlns="http://www.w3.org/2000/svg" xmlns:xlink="http://www.w3.org/1999/xlink" x="0px" y="0px"
	 viewBox="0 0 135 30" style="enable-background:new 0 0 135 30;" xml:space="preserve">
<style type="text/css">
	.st0{fill:#B7D05A;}
	.st1{opacity:0.4;}
	.st2{fill:#FAC308;}
	.st3{fill:#88CDD7;}
	.st4{fill:#FFFFFF;}
</style>
<g id="XMLID_55_">
	<g id="XMLID_341_">
		<path id="XMLID_361_" class="st0" d="M19.4,20.9L19.4,20.9c-4.2,1.1-8.7,2.3-11.3,0.5c0,6.8,5.5,5.6,11.3,4.3v0
			c4.2-1.1,8.7-2.3,11.3-0.5C30.8,18.4,25.2,19.6,19.4,20.9z"/>
		<g id="XMLID_359_" class="st1">
			<path id="XMLID_360_" class="st0" d="M8.1,22.3c-2,0.2-3.8,0.1-5.2-0.8c0,5.5,3.5,5.8,7.9,5C9.3,26,8.3,24.7,8.1,22.3z"/>
		</g>
		<path id="XMLID_358_" class="st2" d="M19.4,12.6L19.4,12.6c-4.2,1.1-8.7,2.3-11.3,0.5c0,6.8,5.5,5.6,11.3,4.3v0
			c4.2-1.1,8.7-2.3,11.3-0.5C30.8,10.1,25.2,11.3,19.4,12.6z"/>
		<g id="XMLID_355_" class="st1">
			<path id="XMLID_357_" class="st2" d="M8.1,13.9c-2,0.2-3.8,0.1-5.2-0.8c0,5.5,3.5,5.8,7.9,5C9.3,17.6,8.3,16.4,8.1,13.9z"/>
		</g>
		<path id="XMLID_353_" class="st3" d="M19.4,4.2L19.4,4.2c-4.2,1.1-8.7,2.3-11.3,0.5c0,6.8,5.5,5.6,11.3,4.3v0
			c4.2-1.1,8.7-2.3,11.3-0.5C30.8,1.7,25.2,2.9,19.4,4.2z"/>
		<g id="XMLID_351_" class="st1">
			<path id="XMLID_352_" class="st3" d="M8.1,5.6c-2,0.2-3.8,0.1-5.2-0.8c0,5.5,3.5,5.8,7.9,5C9.3,9.3,8.3,8,8.1,5.6z"/>
		</g>
	</g>
	<g id="XMLID_56_">
		<g id="XMLID_232_">
			<g id="XMLID_234_">
				<path id="XMLID_259_" class="st4" d="M38.7,6.7c0-0.6,0.3-0.8,0.8-0.8h5.7c4.8,0,8.7,2.6,8.7,9.8c0,7.3-3.8,9.8-8.7,9.8h-5.7
					c-0.6,0-0.8-0.3-0.8-0.8V6.7z M45,23.4c3.5,0,6.3-2.1,6.3-7.7c0-5.6-2.8-7.7-6.3-7.7h-3.8v15.4H45z"/>
				<path id="XMLID_256_" class="st4" d="M63.2,10.7c3.8,0,5.8,2.6,5.8,7.3c0,0.3-0.6,1.2-0.9,1.2h-8.9c0.2,3.1,1.5,4.5,4.3,4.5
					c2.4,0,3.8-1.2,4.1-1.2c0.4,0,1,1.1,1,1.4c0,0.7-2.2,1.8-5.1,1.8c-4.7,0-6.9-2.4-6.9-7.4C56.7,13.3,58.9,10.7,63.2,10.7z
					 M66.5,17.1c0-2.9-1.1-4.4-3.4-4.4c-2.4,0-3.7,1.5-3.9,4.4H66.5z"/>
				<path id="XMLID_254_" class="st4" d="M78.2,10.7c2.2,0,4.2,0.6,4.2,1.3c0,0.4-0.5,1.5-0.9,1.5c-0.1,0-0.1-0.1-0.3-0.1
					c-0.5-0.2-1.5-0.7-3.1-0.7c-2.5,0-4.1,1.5-4.1,5.4c0,3.9,1.2,5.6,4.3,5.6c1.6,0,2.7-0.5,3.2-0.7c0.2-0.1,0.3-0.1,0.3-0.1
					c0.4,0,1,1,1,1.4c0,0.6-2,1.4-4.4,1.4c-4.5,0-6.9-2.2-6.9-7.6C71.5,12.2,74.9,10.7,78.2,10.7z"/>
				<path id="XMLID_252_" class="st4" d="M85.4,5c0-0.4,0.3-0.6,1.1-0.6h0.1c0.8,0,1.1,0.2,1.1,0.6v16.6c0,1.7,0.7,2.1,1.5,2.1
					c0.8,0,1-0.1,1.2-0.1c0.4,0,0.6,1.1,0.6,1.3c0,0.8-1.3,0.8-2,0.8c-1.4,0-3.6-0.6-3.6-3.9V5z"/>
				<path id="XMLID_250_" class="st4" d="M93.7,11.4c0-0.4,0.3-0.6,1.1-0.6h0.1c0.8,0,1.1,0.2,1.1,0.6V25c0,0.4-0.3,0.6-1.1,0.6
					h-0.1c-0.8,0-1.1-0.2-1.1-0.6V11.4z"/>
				<path id="XMLID_248_" class="st4" d="M100.2,15.1c0-2.3-0.3-3.4-0.3-3.5c0-0.5,1.2-0.6,1.5-0.6c0.7,0,0.8,1.1,1,1.9
					c0.9-1.1,2.5-2.1,4.3-2.1c1.4,0,3.2,0.4,4,2.3c1.1-1.3,2.7-2.3,4.5-2.3c1.8,0,4.4,0.7,4.4,4.5V25c0,0.4-0.3,0.6-1.1,0.6h-0.1
					c-0.8,0-1.1-0.2-1.1-0.6v-9.5c0-1.7-0.9-2.7-2.7-2.7c-1.7,0-3,1.5-3.5,1.9c0,0.2,0,0.4,0,0.6V25c0,0.4-0.3,0.6-1.1,0.6h-0.1
					c-0.8,0-1.1-0.2-1.1-0.6v-9.5c0-1.7-0.9-2.7-2.7-2.7c-2,0-3.4,1.9-3.4,1.9V25c0,0.4-0.3,0.6-1.1,0.6h-0.1
					c-0.8,0-1.1-0.2-1.1-0.6V15.1z"/>
				<path id="XMLID_236_" class="st4" d="M131.8,16.4v-1.3c0-1.3-0.8-2.4-3.1-2.4c-2.6,0-4.1,1.2-4.4,1.2c-0.4,0-1-1.1-1-1.4
					c0-0.7,2.5-1.8,5.3-1.8c3.5,0,5.5,1.6,5.5,4.4v6.3c0,2.3,0.3,3.4,0.3,3.5c0,0.5-1.2,0.6-1.5,0.6c-0.7,0-0.8-1.2-1-2
					c-1.1,1.2-2.6,2.1-4.7,2.1c-2.7,0-4.8-1.3-4.8-4.2C122.5,16.7,127.5,16.4,131.8,16.4z M127.4,23.6c2,0,3.3-0.9,4.4-1.9v-3.3
					c-2.9,0-6.8,0-6.8,2.9C125,22.8,125.8,23.6,127.4,23.6z"/>
			</g>
			<path id="XMLID_233_" class="st4" d="M94.5,4.4h0.7c0.5,0,0.8,0.4,0.8,0.8v3.1h-2.4V5.3C93.7,4.8,94.1,4.4,94.5,4.4z"/>
		</g>
	</g>
</g>
</svg>
